<svg width="40" height="24" viewBox="0 0 40 24" fill="none" xmlns="http://www.w3.org/2000/svg">
<path d="M33.1929 13.3805C32.5462 12.5638 32.7311 12.2004 33.1929 11.4704C33.2012 11.462 38.5396 4.08514 39.0896 1.58339L39.093 1.58172C39.3663 0.670024 39.0931 0 37.7713 0H33.3978C32.2845 0 31.7711 0.57502 31.496 1.21838C31.496 1.21838 29.2693 6.54849 26.1192 10.0037C25.1025 11.002 24.6326 11.3221 24.0775 11.3221C23.8042 11.3221 23.3792 11.002 23.3792 10.0904V1.58172C23.3792 0.488351 23.0675 0 22.1457 0H15.2689C14.5705 0 14.1556 0.510018 14.1556 0.985034C14.1556 2.02174 15.7305 2.26008 15.8939 5.17685V11.5053C15.8939 12.892 15.6423 13.1471 15.0839 13.1471C13.5971 13.1471 9.98868 7.7952 7.85027 1.67006C7.41859 0.481683 6.99691 0.00166644 5.8752 0.00166644H1.50005C0.251675 0.00166644 0 0.576687 0 1.22004C0 2.35675 1.48672 8.00854 6.91357 15.4755C10.5304 20.5723 15.6239 23.3341 20.2574 23.3341C23.0425 23.3341 23.3825 22.7208 23.3825 21.6658C23.3825 16.7957 23.1308 16.3355 24.5259 16.3355C25.1726 16.3355 26.2858 16.6556 28.8859 19.114C31.8578 22.0292 32.3462 23.3341 34.0096 23.3341H38.3829C39.6296 23.3341 40.2614 22.7208 39.8981 21.5107C39.0663 18.9657 33.4462 13.7305 33.1929 13.3805Z" fill="#bebebe"/>
</svg>
