<svg width="40" height="29" viewBox="0 0 40 29" fill="none" xmlns="http://www.w3.org/2000/svg">
<path d="M39.1758 4.38233C38.7149 2.6687 37.3637 1.31786 35.6504 0.856435C32.5204 0 19.9995 0 19.9995 0C19.9995 0 7.47926 0 4.34913 0.823965C2.6687 1.28491 1.28466 2.66895 0.823735 4.38233C8.47712e-08 7.51216 0 14.0032 0 14.0032C0 14.0032 8.47712e-08 20.5269 0.823735 23.6241C1.28516 25.3375 2.63575 26.6883 4.34937 27.1497C7.51221 28.0064 20 28.0064 20 28.0064C20 28.0064 32.5204 28.0064 35.6504 27.1824C37.364 26.7213 38.7149 25.3703 39.1764 23.657C39.9998 20.5269 39.9998 14.0362 39.9998 14.0362C39.9998 14.0362 40.0327 7.51216 39.1758 4.38233ZM16.0132 19.9997V8.00667L26.4248 14.0032L16.0132 19.9997Z" fill="#bebebe"/>
</svg>
